# xmcd
#
# Track frame offsets:
#	150
#	17335
#	36515
#	55428
#	72913
#	90098
#	109278
#	128191
#
# Disc length: 1942 seconds
#
# Revision: 2
# Processed by: cddbd v1.5.2PL0 Copyright (c) Steve Scherf et al.
# Submitted via: audiograbber 1.83.01
#
DISCID=65079408
DTITLE=Karaoke Bay - Sing Shania Twain - KBA27612
DYEAR=1900
DGENRE=Karaoke
TTITLE0=Twain, Shania - You're Still The one
TTITLE1=Twain, Shania - Who's Bed Have Your Boots Been Under
TTITLE2=Twain, Shania - Any Man Of Mine
TTITLE3=Twain, Shania - Don't Be Stupid(You Know I Love You)
TTITLE4=Twain, Shania - You're Still The one w/vocals
TTITLE5=Twain, Shania - Who's Bed Have Your Boots Been Under w/vocals
TTITLE6=Twain, Shania - Any Man Of Mine w/vocals
TTITLE7=Twain, Shania - Don't Be Stupid(You Know I Love You)  w/vocals
EXTD=
EXTT0=
EXTT1=
EXTT2=
EXTT3=
EXTT4=
EXTT5=
EXTT6=
EXTT7=
PLAYORDER=
